<?xml version="1.0" encoding="UTF-8"?><svg id="Layer_4" xmlns="http://www.w3.org/2000/svg" viewBox="0 0 150 150"><defs><style>.cls-1{fill:#231f20;}</style></defs><path class="cls-1" d="M96.32,111.58c1.93-4.59-1.29-6.94-4.06-9.58-4.09-3.91-3.89-3.53-8.96-1.5-4.15,1.66-5.26,4.32-5.18,8.3,.04,2.23-.43,4.47-.69,6.7-.17,1.42-.94,2.07-2.43,2.06-5.22-.05-10.45-.05-15.67,0-1.59,.02-2.38-.64-2.54-2.2-.39-3.75-.87-7.49-1.18-11.25-.09-1.07-.45-1.6-1.44-1.81-.39-.08-.82-.17-1.12-.4-3.83-2.87-6.85-1.5-9.76,1.6-1.47,1.57-3.29,2.82-4.95,4.22-1.1,.93-2.12,.9-3.16-.16-3.79-3.83-7.6-7.63-11.42-11.42-1.08-1.07-.98-2.06-.06-3.15,2.33-2.76,4.61-5.57,6.96-8.31,.76-.89,1.16-1.67,.39-2.76-.41-.58-.8-1.28-.87-1.96-.44-4.05-3.36-4.29-6.48-4.45-2.56-.13-5.1-.55-7.66-.77-1.67-.15-2.47-1.03-2.47-2.64-.02-5.22,0-10.45-.01-15.67,0-1.84,1.24-2.27,2.69-2.42,3.59-.39,7.18-.81,10.78-1.06,1.1-.08,1.54-.49,1.8-1.43,.22-.77,.37-1.62,.83-2.23,2.29-3.03,1.31-5.39-1.16-7.78-1.72-1.66-3.05-3.72-4.63-5.54-1.06-1.23-1.23-2.31,.02-3.54,3.78-3.72,7.53-7.47,11.25-11.26,1.14-1.16,2.15-1.1,3.33-.1,2.63,2.23,5.3,4.42,7.95,6.63,.31,.26,.58,.57,.91,.78,1.23,.78,8.06-2.48,8.23-3.95,.41-3.59,.8-7.18,1.12-10.78,.18-2,1.16-2.76,3.15-2.73,4.82,.08,9.65,.1,14.47,0,2.13-.04,3.11,.83,3.29,2.88,.32,3.52,.69,7.03,1.06,10.54,.05,.52-.22,1.21,.45,1.5,2.27,.99,4.54,1.97,6.84,2.89,.62,.25,1-.4,1.41-.73,2.74-2.22,5.51-4.42,8.19-6.73,1.47-1.27,2.64-1.43,4.1,.09,3.51,3.65,7.11,7.22,10.74,10.74,1.3,1.26,1.4,2.3,.22,3.7-2.34,2.75-4.53,5.63-6.86,8.39-.66,.78-.77,1.4-.33,2.32,.78,1.66,1.5,3.36,2.08,5.1,.31,.93,.79,1.15,1.69,1.22,3.36,.27,6.71,.63,10.06,.97,3.01,.31,3.42,.75,3.42,3.7,0,4.74-.06,9.49,.03,14.23,.04,1.91-.71,2.83-2.57,3.01-3.59,.35-7.18,.82-10.78,1.09-1.13,.09-1.71,.47-2.01,1.52-.24,.84-.59,1.65-.92,2.46q-1.89,4.56,1.77,8.11c.69,.67,1.46,1.28,2.06,2.02,1.53,1.86,3.12,2.43,5.74,1.98,8.83-1.53,17.23,4.58,19.21,13.53,.29,1.33,.56,2.66,.54,4.05-.03,1.69-.64,2.92-2.21,3.66-1.66,.78-3.17,.5-4.45-.68-2.07-1.91-4.01-3.94-6.06-5.87-2.15-2.03-3.66-1.97-5.74,.18-1.34,1.38-2.67,2.78-3.99,4.19-2.08,2.24-2.04,3.46,.19,5.68,1.71,1.7,3.39,3.43,5.17,5.05,1.6,1.46,2.3,3.17,1.44,5.17-.85,1.98-2.67,2.23-4.66,2.18-9.58-.27-17.29-8.15-17.09-17.57Zm-29.03,2.49c1.69,0,3.38-.09,5.06,.03,1.39,.1,1.82-.5,1.92-1.76,.29-3.44,.74-6.86,.98-10.31,.1-1.42,.67-2.2,1.96-2.64,2.43-.83,4.65-2.13,6.92-3.31,1.15-.6,1.12-1.06,.21-1.88-1.73-1.56-3.43-3.17-5.01-4.87-.94-1-1.74-1.26-3.07-.7-4.26,1.78-8.76,1.98-13.25,1.29-14.28-2.18-24.3-16.72-21.24-30.66,3.31-15.12,17.87-24.18,32.35-20.15,14.15,3.94,22.15,18.21,18.21,32.37-.24,.86-1.13,1.81,.01,2.85,2.15,1.94,4.2,3.98,6.25,6.02,.75,.75,1.15,.62,1.5-.32,.72-1.95,1.57-3.85,2.18-5.83,.42-1.38,1.21-1.93,2.57-2.04,3.44-.29,6.86-.71,10.3-.96,1.23-.09,1.66-.5,1.63-1.75-.07-3.37-.11-6.75,.01-10.13,.05-1.5-.53-1.95-1.88-2.06-3.36-.28-6.7-.72-10.06-.97-1.42-.1-2.16-.66-2.58-2.01-.81-2.6-1.72-5.17-3.18-7.49-.83-1.31-.65-2.29,.36-3.42,2.35-2.64,4.54-5.41,6.89-8.06,.81-.91,.86-1.45-.07-2.33-2.51-2.38-4.94-4.84-7.33-7.33-.85-.89-1.42-.91-2.37-.1-2.62,2.25-5.38,4.33-7.99,6.58-1.16,1-2.16,1.14-3.44,.32-2.24-1.42-4.68-2.52-7.26-3.08-1.93-.43-2.4-1.54-2.55-3.21-.3-3.36-.74-6.7-.95-10.07-.08-1.26-.6-1.4-1.63-1.39-3.46,.04-6.91,.07-10.37-.01-1.22-.03-1.68,.35-1.79,1.55-.33,3.52-.81,7.02-1.11,10.53-.12,1.41-.68,2.14-2.05,2.53-2.77,.79-5.46,1.84-7.94,3.34-1.08,.65-1.89,.45-2.81-.32-2.65-2.22-5.38-4.33-8.01-6.56-1.02-.87-1.68-1.11-2.74,.05-2.28,2.48-4.7,4.85-7.15,7.16-1.02,.96-.89,1.56-.05,2.54,2.2,2.55,4.23,5.25,6.43,7.81,.98,1.14,1.18,2.13,.4,3.44-1.35,2.27-2.5,4.69-3.1,7.25-.41,1.75-1.34,2.36-2.97,2.51-3.43,.32-6.86,.78-10.29,1.06-1.15,.09-1.46,.48-1.43,1.6,.07,3.46,.06,6.91,0,10.37-.02,1.14,.18,1.67,1.52,1.76,3.44,.24,6.86,.74,10.29,1.07,1.48,.14,2.31,.82,2.69,2.25,.69,2.55,1.71,5,3.04,7.28,.76,1.31,.62,2.3-.37,3.45-2.2,2.56-4.21,5.27-6.42,7.81-.95,1.1-.86,1.71,.18,2.68,2.41,2.24,4.78,4.55,6.98,7,1.13,1.25,1.8,.93,2.86,.03,2.5-2.14,5.15-4.11,7.64-6.26,1.15-.99,2.14-1.14,3.45-.38,1.93,1.13,3.97,2.11,6.15,2.64,2.5,.61,3.97,1.73,3.71,4.6-.14,1.49,.28,3.03,.42,4.54q.53,6.05,6.66,6.06c.24,0,.48,0,.72,0Zm-14.06-48.86c-.54,9.23,8.26,16.31,16.85,13.71,2.35-.71,3.78-.24,5.46,1.44,7.92,7.88,15.94,15.66,24,23.4,1.45,1.39,1.89,2.63,1.33,4.64-2.47,8.91,4.44,17.4,14.69,17.07-2.68-2.48-5-4.44-7.1-6.61-2.9-2.98-2.92-6.58-.16-9.69,1.49-1.69,3.08-3.28,4.65-4.89,3.53-3.61,7.32-3.69,10.93-.15,1.87,1.84,3.6,3.83,5.69,6.09,1.05-9.67-8.3-17-16.99-14-1.77,.61-2.9,.42-4.24-.92-7.99-7.93-16.01-15.82-24.15-23.6-1.86-1.77-2.36-3.3-1.6-5.84,2.49-8.4-5.28-17.18-14.1-16.18,0,.08-.05,.2-.02,.23,1.93,1.93,3.88,3.84,5.82,5.76,3.35,3.33,3.49,6.95,.35,10.41-1.51,1.67-3.1,3.27-4.68,4.87-3.34,3.39-7.1,3.43-10.56,.14-2.01-1.91-4.01-3.84-6.17-5.91Zm35.13,5.3c3.07-6.83,.3-18.16-7.85-24.03-9.01-6.49-21.61-5.51-29.23,2.35-7.78,8.02-8.32,20.53-1.3,29.43,6.34,8.03,18.19,10.11,24.7,6.76-1.3-2.32-3.12-2.66-5.76-2.27-10.33,1.54-19.42-6.39-19.71-16.82-.05-1.84,.26-3.44,2.08-4.19,1.84-.75,3.59-.49,5.08,1.02,1.75,1.78,3.56,3.49,5.35,5.22,2.31,2.24,3.68,2.25,5.9,.03,1.31-1.31,2.59-2.63,3.87-3.97,2.14-2.26,2.14-3.8-.05-5.95-1.77-1.75-3.57-3.47-5.39-5.18-1.51-1.42-2.05-3.14-1.23-5.01,.86-1.95,2.64-2.43,4.64-2.21,.96,.1,1.91,.26,2.86,.43,9.31,1.69,15.7,10.33,14.07,19.45-.42,2.36,.15,3.79,1.99,4.95Z"/></svg>