<?xml version="1.0" encoding="UTF-8"?><svg id="Layer_4" xmlns="http://www.w3.org/2000/svg" viewBox="0 0 150 150"><defs><style>.cls-1{fill:#231f20;}</style></defs><path class="cls-1" d="M24.47,44.93c8.46,3.51,16.61,6.9,24.77,10.28,8.68,3.6,17.38,7.16,26.04,10.82,1.5,.63,2.76,.63,4.25-.01,5.76-2.47,11.57-4.81,17.35-7.24,1.45-.61,2.88-.89,3.55,.86,.63,1.66-.63,2.35-1.97,2.89-6.45,2.64-12.9,5.29-19.32,7.99-1.17,.49-2.2,.53-3.38,.04-18.95-7.86-37.92-15.69-56.89-23.53-1.04-.43-2.07-.9-2.03-2.28,.03-1.24,.97-1.71,1.93-2.11,19.03-7.88,38.07-15.75,57.1-23.63,1.09-.45,2.09-.4,3.18,.05,18.95,7.86,37.92,15.69,56.88,23.53,1.03,.43,2.07,.92,2.02,2.3-.04,1.37-1.13,1.8-2.15,2.21-7.82,3.23-15.61,6.54-23.49,9.6-2.36,.92-3.21,2.17-2.45,4.7,5.92-2.42,11.85-4.84,17.78-7.27,1.38-.56,2.73-1.18,4.12-1.71,1.11-.43,2.18-.74,2.36-2.24,.12-1.03,1.05-1.3,1.98-1.26,.88,.04,1.47,.58,1.77,1.36,.81,2.12-.06,4.05-2.22,4.94-7.96,3.29-15.91,6.64-23.92,9.79-1.72,.68-2.15,1.52-2.13,3.25,.1,7.3,.04,14.6,.29,21.99,1.97-2.09,3.94-4.09,3.89-7.26-.06-3.71,.02-7.41-.03-11.12-.02-1.51,.28-2.85,2.02-2.82,1.75,.03,1.97,1.42,1.96,2.9-.04,3.86-.09,7.73,.02,11.59,.11,4-2.01,7.1-4.66,9.42-3.04,2.66-3.92,5.58-3.46,9.29,.11,.85,.08,1.74,0,2.6-.17,1.74,.22,2.93,1.87,4.07,2.92,2.03,3,6.16,.55,8.72-2.4,2.52-6.49,2.48-8.84-.08-2.41-2.62-2.23-6.67,.72-8.71,1.56-1.08,1.79-2.23,1.79-3.87-.04-14.9-.05-29.81,.02-44.71,0-1.69-.49-2.48-2.08-3.05-6.41-2.29-12.78-4.72-19.16-7.13-1.15-.43-2.14-.53-3.35,0-3.26,1.43-6.48,1.06-9.41-.94-3.04-2.08-3.25-5.88-.57-8.28,3.21-2.87,9.22-2.87,12.43,0,.91,.81,1.86,1.89,1.72,2.98-.31,2.44,1.27,2.76,2.92,3.36,5.89,2.15,11.74,4.38,17.61,6.57,.87,.32,1.63,.63,2.68,.18,7.13-3.03,14.31-5.94,21.46-8.89-.04-1-.91-.9-1.37-1.09-16.42-6.84-32.86-13.63-49.29-20.43-1.1-.46-2.08-.74-3.36-.21-16.92,7.06-33.88,14.04-50.82,21.05-.13,.06-.24,.18-.69,.52Zm52.66,1.85c1.81-.07,4.03-.02,4-2.04-.02-1.81-2.19-1.84-3.76-1.84-1.57,0-3.69,.04-3.72,1.88-.04,1.89,2.12,1.82,3.48,1.99Zm30.54,64.74c-1.18,.09-1.88,.68-1.91,1.89-.02,1.2,.59,1.92,1.8,1.96,1.31,.05,2.05-.64,2.02-1.97-.02-1.21-.74-1.8-1.92-1.88Z"/><path class="cls-1" d="M75.42,93.6c0-2.68,.01-5.36,0-8.04,0-1.39,.56-2.37,2.01-2.34,1.45,.03,1.95,1.04,1.94,2.42-.02,5.2,.06,10.4-.05,15.6-.04,1.73,.49,2.05,2.15,1.94,5.7-.38,11.18-1.55,16.38-3.91,1.32-.6,2.7-1.02,3.48,.54,.85,1.7-.39,2.56-1.81,3.2-9.14,4.14-18.78,4.99-28.6,4.09-9-.82-17.32-3.64-24.46-9.42-2.46-1.99-4.6-4.29-6.49-6.83-2.02-2.72-3.28-5.57-2.98-9.13,.29-3.36,.09-6.77,.05-10.16-.01-1.37,.46-2.45,1.88-2.49,1.55-.05,2.11,1.01,2.09,2.51-.04,3.7,.06,7.41-.04,11.11-.05,1.67,.47,3.04,1.35,4.39,5.52,8.36,13.56,12.84,23.08,15.01,2.76,.63,5.57,.96,8.41,1.1,1.27,.06,1.65-.31,1.61-1.55-.08-2.68-.02-5.36-.02-8.04Z"/><path class="cls-1" d="M77.28,79.15c-.53-.19-1.2-.39-1.84-.66-18.74-7.74-37.48-15.49-56.22-23.24-2.26-.93-3.07-2.63-2.32-4.87,.3-.9,.96-1.46,1.93-1.45,.82,0,1.7,.27,1.81,1.19,.19,1.59,1.36,1.87,2.54,2.36,17.3,7.15,34.6,14.31,51.86,21.53,1.65,.69,3.04,.75,4.68,.03,5.82-2.52,11.69-4.92,17.55-7.36,.51-.21,1.02-.42,1.54-.56,1.1-.3,2.13-.12,2.6,1,.49,1.18,.05,2.25-1.13,2.75-7.29,3.05-14.61,6.05-21.92,9.06-.29,.12-.61,.13-1.09,.23Z"/><path class="cls-1" d="M97.66,128.99c.63-2.52,1.26-5.35,2.07-8.13,.32-1.11,1.35-1.54,2.49-1.2,1.06,.31,1.54,1.18,1.32,2.2-.62,2.83-1.3,5.65-2.08,8.45-.33,1.17-1.35,1.46-2.48,1.18-1.16-.28-1.36-1.17-1.32-2.5Z"/><path class="cls-1" d="M117.68,128.97c.04,1.55-.31,2.35-1.46,2.55-1.16,.21-2.08-.17-2.39-1.36-.72-2.73-1.4-5.47-2-8.22-.25-1.14,.24-2.04,1.44-2.32,1.05-.25,2.01,.16,2.3,1.17,.83,2.86,1.5,5.76,2.11,8.18Z"/><path class="cls-1" d="M109.63,126.8c0,.94,.01,1.88,0,2.82-.02,1.23-.68,1.91-1.88,1.94-1.18,.03-1.99-.53-2.01-1.79-.04-2.12-.05-4.24,0-6.35,.03-1.22,.84-1.89,1.98-1.86,1.14,.03,1.88,.72,1.91,1.95,.02,1.1,0,2.2,0,3.29Z"/></svg>