<?xml version="1.0" encoding="UTF-8"?><svg id="Layer_4" xmlns="http://www.w3.org/2000/svg" viewBox="0 0 150 150"><defs><style>.cls-1{fill:#231f20;}</style></defs><path class="cls-1" d="M26.46,81.34c.55-1.33,.56-1.31,2.07-1.35,1.37-.03,2.73,.13,4.1,.11,1.43-.02,2.85-.15,4.29-.11,1.06,.03,1.58,.53,1.58,1.59,0,10.78,0,21.56,0,32.35,0,1.31,.41,1.72,1.7,1.93,.51,.08,.97-.03,1.46-.03,6.37,0,12.74,0,19.1,0,1.11,0,1.61,.51,1.61,1.63,0,2.88-.02,5.77,.01,8.65,0,.84-.15,1.51-1.06,1.76H27.61c-.27-.19-.64-.21-.86-.52-.18-.25-.11-.57-.29-.82v-45.2Z"/><path class="cls-1" d="M102.4,127.87c-.88-.28-1.06-.91-1.06-1.77,.02-14.81,.01-29.62,.01-44.43,0-1.19,.49-1.68,1.68-1.68,1.16,0,2.32,.01,3.47,.09,1.68,.1,3.36-.09,5.05-.1,1.64,0,1.77,.71,1.81,1.81,.07,1.92,.1,3.86,0,5.78-.13,2.42-.06,4.83-.07,7.25-.02,6.34,0,12.68-.01,19.01,0,.34,.05,.67,.14,.98,.14,.46,.42,.85,.93,.93,.54,.09,1.07,.27,1.64,.11,.16-.05,.35-.02,.52-.02,6.27,0,12.54,0,18.81,0,1.23,0,1.5,.17,1.94,1.24v9.56c-.12,.66-.5,1.07-1.15,1.24h-33.72Z"/><path class="cls-1" d="M77.47,18.46c.14,.15,.27,.31,.41,.46,10.82,10.82,21.63,21.64,32.45,32.46q.43,.43-.01,.87c-2.05,2.05-4.1,4.1-6.15,6.15q-.48,.48-.96,.01c-8.4-8.4-16.79-16.8-25.19-25.2-.53-.53-.41-.53-.93,.01-1.27,1.32-2.53,2.63-3.78,3.97-1,1.08-2.02,2.16-3.03,3.23-1.82,1.91-3.62,3.84-5.44,5.74-1.13,1.18-2.25,2.37-3.37,3.56-1.73,1.84-3.47,3.67-5.21,5.5-1.02,1.07-2.01,2.16-3.04,3.22-.26,.27-.43,.27-.7,0-1.34-1.31-2.68-2.62-4.07-3.87-.84-.75-1.58-1.61-2.47-2.31-.25-.2-.26-.37-.02-.62,1.13-1.22,2.29-2.43,3.44-3.63,1.18-1.24,2.36-2.49,3.54-3.73,1.09-1.15,2.18-2.31,3.27-3.46,1.17-1.23,2.34-2.47,3.51-3.7,1.13-1.19,2.25-2.38,3.37-3.56,1.17-1.23,2.34-2.47,3.51-3.7,1.09-1.15,2.18-2.31,3.27-3.46,1.17-1.23,2.34-2.47,3.51-3.7,1.13-1.19,2.22-2.4,3.38-3.56,.2-.2,.36-.45,.53-.67,.06,0,.13,0,.19,0Z"/><path class="cls-1" d="M71.93,94.89c0,4.4,0,8.79,0,13.19,0,1.21,.62,1.8,1.81,1.84,.81,.02,1.61-.11,2.42-.11,1.92,.01,3.84,0,5.77,.09,1.25,.05,1.9-.63,1.94-1.88,0-.11,0-.22,0-.33,0-6.51,.04-13.03-.02-19.54-.02-2.03-.03-4.07-.07-6.1,0-.27,.03-.54,.09-.8,.22-.89,.66-1.25,1.59-1.24,1.16,0,2.32,.05,3.47,.08,1.79,.04,3.59-.05,5.38-.07,1.04-.01,1.5,.45,1.5,1.47,0,8.76,0,17.52,0,26.28,0,1.4-.45,2.6-1.49,3.63-4.65,4.6-9.26,9.24-13.89,13.88-.5,.5-.94,1.06-1.49,1.53-.8,.68-1.56,.49-2.26-.13-.08-.07-.16-.16-.24-.24-4.37-4.37-8.75-8.73-13.09-13.12-.85-.86-1.71-1.71-2.51-2.61-.56-.63-.85-1.41-.85-2.27,0-5.35-.03-10.7,0-16.05,.02-3.39-.15-6.78-.11-10.16,0-.42,.06-.82,.12-1.23,.09-.6,.62-.98,1.34-.97,1.33,0,2.67-.01,4,.08,1.63,.11,3.27-.13,4.91-.09,1.21,.03,1.68,.48,1.68,1.72,0,4.4,0,8.79,0,13.19Z"/><path class="cls-1" d="M77.53,53.64c-.09,.08-.19,.16-.27,.25-1.43,1.53-2.87,3.06-4.3,4.58-.6,.64-1.23,1.24-1.81,1.89-.93,1.04-1.95,2.01-2.91,3.03-1.76,1.88-3.53,3.75-5.31,5.6-1.06,1.11-2.11,2.24-3.17,3.36-1.78,1.88-3.55,3.77-5.34,5.64-.42,.43-.83,.87-1.24,1.32-.2,.22-.36,.23-.59,.01-1.36-1.31-2.7-2.65-4.11-3.91-.78-.7-1.46-1.5-2.3-2.14-.51-.39-.49-.43-.12-.94,.06-.08,.11-.15,.18-.22,.94-.97,1.89-1.93,2.81-2.92,1.81-1.92,3.62-3.84,5.44-5.74,1.05-1.1,2.09-2.22,3.14-3.32,1.79-1.87,3.58-3.74,5.34-5.64,1.11-1.2,2.25-2.38,3.37-3.57,1.73-1.84,3.47-3.67,5.21-5.5,1.11-1.16,2.22-2.32,3.3-3.5,.69-.76,1.48-1.44,2.11-2.26,.36-.47,.39-.45,.83-.02,10.85,10.86,21.7,21.71,32.56,32.56,.34,.34,.36,.51,0,.85-2.1,2.06-4.18,4.15-6.25,6.25-.33,.34-.52,.31-.84-.01-8.42-8.44-16.85-16.87-25.29-25.31-.13-.13-.23-.31-.46-.35Z"/></svg>