<?xml version="1.0" encoding="UTF-8"?><svg id="Layer_4" xmlns="http://www.w3.org/2000/svg" viewBox="0 0 150 150"><defs><style>.cls-1{fill:#231f20;}</style></defs><path class="cls-1" d="M78.37,51.27c.29,.31,.72,.34,1.12,.41,10.34,1.92,18.01,9.69,18.87,19.19,.55,6.06-1.83,11.22-6.27,15.66-.87,.87-1.77,1.71-2.83,2.4-.22,.15-.6,.26-.5,.58,.09,.3,.47,.28,.74,.35,4.77,1.14,9.24,2.87,13.3,5.43,4.52,2.85,8.06,6.44,10.16,11.1,1.03,2.29,1.59,4.69,1.65,7.15,.07,3.03,.04,6.07,.01,9.1-.04,4.67-3.33,8.59-8.27,9.93-.34,.09-.68,.17-.92,.45H44.59c-.25-.3-.64-.36-1-.47-4.48-1.35-7.17-4.12-8.02-8.32-.13-.63-.19-1.26-.17-1.91,.1-3.72-.32-7.46,.26-11.16,.94-5.97,4.38-10.64,9.47-14.39,4.58-3.38,9.82-5.53,15.51-6.86,.3-.07,.72-.05,.83-.37,.11-.35-.29-.48-.53-.66-3.07-2.17-5.48-4.82-7.04-8.06-3.03-6.28-2.86-12.52,.76-18.53,3.45-5.74,8.88-9.25,15.97-10.64,.37-.07,.76-.11,1.03-.4h6.72Zm-3.36,76.65c9.28,0,18.56,0,27.84,0,3.66,0,6.09-2.22,6.11-5.52,.01-2.58-.04-5.16,.01-7.74,.09-4.64-1.91-8.49-5.38-11.77-4.3-4.07-9.68-6.45-15.6-7.91-6.24-1.55-12.59-1.92-19-1.22-7.91,.86-15.25,3.05-21.31,7.93-4.14,3.33-6.59,7.46-6.61,12.58-.01,2.61,0,5.21,0,7.82,0,3.74,2.33,5.85,6.46,5.85,9.16,0,18.33,0,27.49,0Zm-.06-39.92c9.47,.25,17.44-7.09,17.61-15.51,.17-8.53-7.71-16.11-17.46-16.11-9.61,0-17.46,7.08-17.62,15.65-.17,8.89,8.06,16.21,17.48,15.98Z"/><g><path class="cls-1" d="M100.4,60.3c.38-1.99,.73-4.09,1.19-6.17,.21-.96-.02-1.65-.83-2.31-1.59-1.31-3.11-2.71-4.66-4.06-.61-.53-1.07-1.12-.78-1.94,.29-.83,1.08-1.03,1.9-1.14,2.25-.3,4.49-.62,6.75-.87,.83-.09,1.31-.43,1.66-1.09,.98-1.85,2.01-3.68,3.01-5.53,.37-.69,.83-1.29,1.78-1.29,.94,0,1.42,.58,1.79,1.28,.97,1.78,1.98,3.54,2.9,5.34,.42,.8,.96,1.22,1.99,1.32,2.14,.2,4.27,.53,6.4,.83,.85,.12,1.71,.27,2.02,1.15,.31,.87-.22,1.45-.85,2.01-1.6,1.41-3.18,2.84-4.8,4.23-.58,.5-.83,.99-.66,1.75,.44,1.98,.77,3.97,1.14,5.96,.14,.77,.23,1.55-.58,2.1-.82,.56-1.6,.25-2.38-.12-1.91-.91-3.84-1.79-5.72-2.73-.87-.44-1.61-.44-2.49,0-2.02,1.01-4.07,1.98-6.14,2.91-1.44,.65-2.75-.13-2.65-1.61Zm4.13-3.47c-.06,.68,.34,.74,.92,.47,1.13-.52,2.29-1.01,3.37-1.61,1.12-.62,2.14-.58,3.25,0,1.13,.6,2.31,1.11,3.47,1.66,.62,.29,.95,.26,.79-.5-.25-1.2-.43-2.4-.69-3.6-.22-1.04,0-1.89,.92-2.62,.99-.78,1.88-1.64,2.81-2.48,.21-.19,.58-.36,.44-.67-.12-.28-.51-.27-.81-.31-1.33-.18-2.67-.36-4-.51-1.04-.12-1.77-.55-2.21-1.44-.56-1.14-1.22-2.25-1.83-3.37-.35-.65-.68-.71-1.05-.02-.59,1.1-1.24,2.16-1.78,3.28-.49,1.02-1.31,1.47-2.48,1.58-1.19,.11-2.36,.28-3.54,.44-.37,.05-.87,0-1,.37-.13,.38,.35,.58,.61,.81,.95,.86,1.92,1.71,2.88,2.56,.62,.55,.86,1.18,.68,1.99-.29,1.29-.5,2.6-.75,3.94Z"/><path class="cls-1" d="M29.54,60.25c.38-2.04,.76-4.24,1.23-6.42,.16-.74-.02-1.25-.62-1.76-1.68-1.43-3.31-2.92-4.97-4.37-.6-.52-.97-1.09-.73-1.86,.25-.8,.97-1.04,1.76-1.14,2.29-.31,4.57-.63,6.86-.89,.82-.09,1.32-.4,1.68-1.07,.98-1.85,2.01-3.68,3.01-5.53,.37-.69,.83-1.3,1.77-1.31,1-.02,1.46,.63,1.85,1.35,1,1.85,2.03,3.68,3.01,5.53,.33,.63,.81,.94,1.59,1.02,2.22,.25,4.42,.56,6.63,.85,.86,.11,1.72,.26,2.03,1.13,.32,.9-.24,1.52-.91,2.1-1.59,1.37-3.14,2.78-4.74,4.13-.64,.54-.8,1.12-.64,1.87,.42,2.05,.78,4.11,1.19,6.17,.14,.71,.03,1.33-.62,1.79-.66,.47-1.37,.37-2.06,.04-1.98-.93-3.98-1.85-5.93-2.83-.93-.47-1.74-.51-2.69-.02-1.98,1.01-4,1.95-6.04,2.86-1.47,.66-2.71-.07-2.66-1.65Zm4.13-3.52c-.07,.91,.02,.98,.81,.62,1.21-.54,2.41-1.09,3.57-1.7,1-.52,1.92-.57,2.93-.04,1.13,.59,2.31,1.12,3.48,1.65,.29,.13,.62,.46,.93,.22,.28-.21,.09-.6,.03-.89-.22-1.24-.43-2.47-.7-3.7-.18-.84,.09-1.49,.76-2.06,1.01-.86,2-1.74,2.98-2.61,.21-.19,.55-.36,.42-.68-.12-.3-.49-.3-.79-.34-1.29-.17-2.59-.35-3.89-.49-1.08-.12-1.85-.56-2.31-1.49-.57-1.14-1.22-2.25-1.83-3.37-.38-.7-.7-.63-1.04,.02-.52,.97-1.13,1.91-1.57,2.91-.56,1.28-1.52,1.91-3.05,1.99-1.22,.07-2.44,.29-3.66,.46-.73,.1-.86,.37-.29,.85,.92,.79,1.79,1.64,2.76,2.37,1.09,.81,1.35,1.78,1.08,2.97-.26,1.16-.45,2.33-.64,3.32Z"/><path class="cls-1" d="M83.4,46.2c-.52,0-.97-.2-1.41-.41-1.87-.89-3.78-1.73-5.61-2.69-1-.53-1.8-.48-2.77,.03-1.84,.95-3.74,1.79-5.62,2.68-.78,.37-1.58,.63-2.37,.06-.74-.53-.71-1.23-.55-1.99,.4-1.98,.73-3.98,1.14-5.96,.16-.77-.04-1.32-.67-1.86-1.65-1.41-3.24-2.87-4.88-4.3-.62-.55-1.04-1.15-.73-1.94,.3-.75,1.01-.97,1.82-1.07,2.17-.27,4.34-.59,6.52-.84,.96-.11,1.6-.44,2.02-1.29,.89-1.77,1.89-3.5,2.85-5.25,.38-.71,.79-1.37,1.82-1.39,1.09-.02,1.52,.68,1.92,1.42,.94,1.72,1.93,3.41,2.79,5.15,.44,.88,1.1,1.23,2.1,1.34,2.18,.25,4.34,.56,6.52,.84,.81,.1,1.53,.34,1.79,1.11,.25,.74-.07,1.35-.67,1.88-1.63,1.43-3.24,2.88-4.9,4.28-.65,.55-.9,1.1-.72,1.93,.46,2.04,.82,4.11,1.19,6.16,.22,1.22-.45,2.07-1.58,2.1Zm-14.29-5.41c-.09,.68,.21,.89,.99,.52,1.22-.59,2.47-1.15,3.68-1.75,.82-.41,1.58-.43,2.41-.02,1.25,.62,2.52,1.2,3.79,1.79,.23,.11,.48,.31,.75,.18,.35-.17,.19-.51,.14-.76-.2-1.2-.43-2.4-.66-3.6-.18-.96,.03-1.76,.88-2.44,1.01-.81,1.93-1.7,2.9-2.55,.59-.52,.48-.81-.35-.91-1.41-.18-2.81-.42-4.23-.57-.99-.11-1.6-.56-2.01-1.35-.6-1.17-1.25-2.31-1.89-3.46-.12-.21-.18-.52-.5-.52-.31,0-.39,.31-.5,.52-.64,1.15-1.29,2.3-1.89,3.46-.41,.79-1.02,1.25-2.01,1.36-1.34,.14-2.67,.35-4,.55-.33,.05-.78-.05-.92,.3-.16,.41,.31,.6,.56,.83,.95,.87,1.91,1.72,2.88,2.56,.64,.55,.87,1.19,.71,1.98-.26,1.26-.47,2.54-.72,3.89Z"/></g></svg>