<?xml version="1.0" encoding="UTF-8"?><svg id="Layer_4" xmlns="http://www.w3.org/2000/svg" viewBox="0 0 150 150"><defs><style>.cls-1{fill:#3e5c7f;}</style></defs><path class="cls-1" d="M37.53,133.24c-1.14-.23-2.3-.37-3.4-.69-4.53-1.33-7.74-4.19-9.44-8.58-7.36-19.05-14.68-38.11-21.99-57.17-2.89-7.53,.71-15.65,8.23-18.64,3.05-1.21,6.12-2.36,9.18-3.53,.22-.09,.46-.15,.84-.27,0,1.74,.03,3.38-.04,5.02-.01,.23-.5,.53-.83,.66-2.79,1.1-5.59,2.16-8.39,3.23-4.3,1.64-5.99,5.36-4.35,9.63,4.54,11.85,9.1,23.7,13.65,35.55,.11,.28,.26,.54,.66,.79,0-.43,0-.86,0-1.29,0-20.64,0-41.28,0-61.92,0-4.35,1.88-6.21,6.28-6.21,9.86,0,19.72,0,29.58-.02,.68,0,1.4-.14,2.04-.39,11.99-4.58,23.97-9.19,35.95-13.79,8.35-3.21,16.32,.34,19.52,8.69,.54,1.42,1.16,2.81,1.6,4.26,.32,1.04,.88,1.28,1.91,1.27,5.8-.05,11.59-.03,17.39-.03,3.54,0,5.71,2.12,5.72,5.63,0,26.26,0,52.52,0,78.77,0,3.52-2.09,5.6-5.59,5.6-19.79,0-39.58,0-59.37,.02-.86,0-1.76,.16-2.56,.47-10.15,3.87-20.27,7.81-30.42,11.65-1.63,.62-3.4,.86-5.1,1.27h-1.06ZM81.96,34.89c-17.11,0-34.21,0-51.32,0-2.45,0-3.35,.89-3.35,3.3,0,24.07,0,48.14,0,72.2,0,2.36,.98,3.36,3.33,3.36,34.18,0,68.35,0,102.53,0,2.3,0,3.27-.98,3.27-3.29,0-24.1,0-48.21,0-72.31,0-.28,.01-.57,0-.85-.07-1.19-.9-2.14-2.08-2.33-.55-.09-1.13-.08-1.69-.08-16.89,0-33.79,0-50.68,0Zm-8.53-5.36c0,.06,.02,.12,.02,.17h38.03c-.81-2.11-1.55-4.09-2.32-6.05-1.62-4.13-5.37-5.79-9.53-4.2-5.33,2.04-10.65,4.09-15.98,6.14-3.41,1.31-6.82,2.62-10.24,3.93Zm-16.16,90.63c-.01-.09-.03-.17-.04-.26H29.26c.36,.96,.68,1.81,1.01,2.65,1.65,4.27,5.39,5.93,9.65,4.29,4.02-1.54,8.03-3.08,12.04-4.63,1.77-.68,3.54-1.38,5.31-2.07Z"/><path class="cls-1" d="M75.92,88.06c5.72-14.23,11.4-28.37,17.15-42.69,4.76,12.15,9.47,24.14,14.29,36.43,3.18-5.35,6.21-10.45,9.36-15.75,5.91,10.18,11.73,20.22,17.59,30.31-.37,.24-.61,.45-.89,.56-.77,.31-1.08,.85-.93,1.66,.14,.82-.27,1.08-1.02,1.01-.24-.02-.49,0-.74,0-31.8,0-63.6,0-95.4,0-.55,0-1.1,0-1.65,0-.18-3.86,1.07-6.95,3.78-9.44,3.38-3.1,7.47-4.77,11.88-5.7,7.81-1.65,15.5-1.23,22.95,1.82,1.2,.49,2.33,1.15,3.64,1.81Zm17.13-30.99c-.21,.4-.34,.63-.44,.88-1.03,2.55-2.05,5.1-3.08,7.65-3.25,8.08-6.5,16.16-9.78,24.24-.32,.8-.36,1.38,.23,2.11,.61,.75,1.09,1.66,1.46,2.56,.28,.68,.64,.86,1.34,.86,5.19-.03,10.39-.03,15.58,0,.75,0,1.14-.27,1.49-.88,1.37-2.39,2.77-4.76,4.21-7.11,.4-.66,.49-1.19,.19-1.94-3.58-9.05-7.12-18.11-10.67-27.18-.14-.35-.31-.69-.53-1.19Zm11.25,38.21h24.48c-4.04-6.97-8.01-13.8-12.11-20.87-4.18,7.06-8.24,13.89-12.37,20.87Zm-65.61-.33c.08,.1,.17,.2,.25,.29h38.22c-.36-.5-.59-.85-.86-1.16-1.95-2.27-4.52-3.58-7.27-4.55-5.3-1.87-10.76-2.22-16.28-1.44-3.9,.55-7.67,1.64-10.92,3.99-1.14,.83-2.1,1.91-3.13,2.87Z"/><path class="cls-1" d="M50.07,65.44c0-3.08,2.39-5.44,5.45-5.4,3.04,.04,5.35,2.37,5.36,5.4,.01,3.08-2.34,5.43-5.42,5.43-3.1,0-5.4-2.31-5.39-5.43Zm8.34,.07c.02-1.66-1.26-2.97-2.91-2.99-1.64-.03-2.96,1.26-2.98,2.91-.02,1.65,1.26,2.98,2.9,2.99,1.65,.02,2.97-1.27,2.99-2.91Z"/><path class="cls-1" d="M48.02,64.59v1.57c-1.99,0-3.92,.02-5.84-.03-.23,0-.63-.46-.61-.68,.02-.3,.36-.82,.58-.82,1.93-.06,3.85-.04,5.87-.04Z"/><path class="cls-1" d="M54.8,58v-6.66c1.36-.26,1.43-.22,1.44,1.01,0,1.55,0,3.09,0,4.64,0,1.22-.08,1.27-1.44,1.01Z"/><path class="cls-1" d="M63.17,66.12c-.23-1.38-.21-1.41,1.02-1.42,1.16,0,2.33,0,3.49,0,1.27,0,1.29,.04,1.11,1.42h-5.62Z"/><path class="cls-1" d="M54.53,78.57c0-1.65-.02-3.3,.03-4.95,0-.22,.41-.61,.61-.59,.29,.02,.79,.32,.8,.52,.07,1.55,.09,3.11-.02,4.65-.02,.25-.72,.45-1.1,.67-.11-.1-.21-.2-.32-.31Z"/><path class="cls-1" d="M46.47,57.12c.25-.24,.58-.55,.91-.87,1.13,1.19,2.19,2.31,3.35,3.53-.26,.16-.67,.41-1.02,.62-.94-.95-2.04-2.07-3.24-3.28Z"/><path class="cls-1" d="M49.77,70.09c.26,.29,.56,.62,.79,.88-1.14,1.13-2.24,2.23-3.51,3.49-.18-.22-.48-.58-.77-.92,1.16-1.15,2.28-2.25,3.49-3.45Z"/><path class="cls-1" d="M60.54,59.31c.87-.83,1.7-1.62,2.65-2.52,.27,.32,.57,.69,.89,1.07-.82,.8-1.66,1.62-2.58,2.52-.27-.3-.57-.64-.95-1.07Z"/><path class="cls-1" d="M63.31,72.49c-.37,.38-.68,.7-1.05,1.08-.72-.77-1.38-1.48-2.1-2.24,.29-.3,.62-.65,.99-1.03,.75,.76,1.4,1.43,2.16,2.2Z"/></svg>