<?xml version="1.0" encoding="UTF-8"?><svg id="Layer_4" xmlns="http://www.w3.org/2000/svg" viewBox="0 0 150 150"><defs><style>.cls-1{fill:#231f20;}</style></defs><path class="cls-1" d="M31.8,130.19c-.11-.04-.23-.07-.34-.1-.51-.15-.85-.45-.93-.99-.03-.22-.08-.45-.07-.67,.02-2.77,0-5.54,.09-8.31,.21-6.25,3.14-10.75,8.89-13.23,3.05-1.31,6.22-2.33,9.34-3.46,2.61-.94,5.24-1.85,7.86-2.78,1.27-.45,1.65-.94,1.73-2.28,.21-3.55-.78-6.64-3.31-9.22-3.37-3.43-5.47-7.58-6.46-12.26-1.76-8.31-.53-16.14,4.2-23.28,2.81-4.24,6.6-7.36,11.51-8.88,7-2.15,13.35-.71,18.94,3.92,4.72,3.91,7.51,9.06,8.74,15.01,1.74,8.4,.23,16.22-4.7,23.29-.86,1.23-1.9,2.34-2.91,3.44-.63,.69-1.09,1.42-1.08,2.36,.01,1.76,.05,3.52,.15,5.28,.07,1.14,.68,2.01,1.71,2.48,1.33,.6,2.68,1.14,4.05,1.64,3.99,1.46,8.01,2.87,11.99,4.35,3.45,1.29,6.25,3.41,8.03,6.71,1.31,2.43,1.8,5.05,1.8,7.79,0,2.28,.01,4.55,.02,6.83,0,.36,.03,.72,0,1.08-.09,.75-.34,1.01-1.08,1.19-.07,.02-.14,.06-.2,.08h-18.18c-.11-.02-.23-.07-.34-.07-1.76,0-3.53,0-5.29,0-.11,0-.23,.04-.34,.07h-26.41c-.14-.02-.29-.07-.43-.07-3.72,0-7.44,0-11.17,0-.14,0-.29,.04-.43,.07h-15.38Zm38.94-38.84c.54-.07,1.61-.15,2.65-.38,3.9-.88,6.92-3.12,9.37-6.21,2.28-2.88,3.6-6.2,4.33-9.77,.04-.17,.17-.4,.31-.47,.68-.29,1.08-.79,1.23-1.51,.31-1.39,.28-2.78-.03-4.16-.03-.11-.2-.25-.32-.28-.69-.14-1.39-.24-2.09-.37-2.64-.48-5.24-1.14-7.61-2.45-.94-.52-1.83-.6-2.79-.13-.23,.11-.47,.19-.71,.28-4.57,1.77-9.29,3.03-14.16,3.65-2.33,.29-4.67,.44-7.01,.64-.78,.07-1.14,.45-1.03,1.18,.17,1.1,.33,2.2,.52,3.29,.81,4.72,2.82,8.84,6.26,12.2,2.92,2.85,6.43,4.39,11.08,4.45Zm8.54,33.67h.56c8.3,0,16.61,0,24.91,0,.09,0,.18,0,.27,0,.47,0,.76-.22,.88-.68,.42-1.58,.53-3.19,.23-4.79-.78-4.14-3.19-6.96-7.11-8.46-2.54-.97-5.11-1.87-7.67-2.79-.61-.22-1.23-.44-1.75-.63-.04,.31,.02,.62-.11,.83-2.73,4.45-5.49,8.89-8.23,13.33-.64,1.03-1.28,2.07-1.98,3.19Zm-18.64,0c-.06-.13-.08-.2-.12-.26-3.34-5.42-6.69-10.83-10.02-16.25-.15-.24-.29-.22-.52-.13-2.1,.76-4.22,1.49-6.32,2.28-1.15,.43-2.31,.87-3.38,1.47-2.25,1.27-3.85,3.13-4.28,5.73-.27,1.61-.31,3.26-.38,4.9-.08,1.85,.4,2.3,2.25,2.3,7.43,0,14.85-.02,22.28-.03,.14,0,.27,0,.48,0Zm17.44-30.15s-.09,0-.13,.02c-2.08,.8-4.23,1.3-6.45,1.41-1.17,.06-2.35,.09-3.51-.05-.96-.12-1.88-.53-2.82-.75-.99-.23-1.6,.08-1.79,1.07-.17,.87-.17,1.79-.15,2.68,.02,.93,.18,1.86,.24,2.79,.05,.95-.42,1.62-1.27,2-.49,.22-1.01,.39-1.52,.57-.71,.25-1.43,.5-2.18,.76,.13,.14,.21,.23,.29,.31,2.06,2.03,4.13,4.05,6.19,6.08,1.33,1.31,2.65,2.64,3.98,3.95,.82,.8,1.34,.79,2.16,0,.08-.07,.15-.15,.22-.22,3.28-3.28,6.56-6.56,9.84-9.84,.21-.21,.43-.4,.7-.64-.75-.26-1.41-.47-2.05-.72-1.47-.56-1.84-1.31-1.78-2.89,.09-2.16,.02-4.33,.02-6.5Zm.34,30.12c-.21-.45-.39-.86-.59-1.26-1.5-2.95-3.69-5.17-6.79-6.43-.5-.2-1.01-.33-1.53-.12-3.3,1.38-5.91,3.51-7.34,6.88-.13,.3-.24,.6-.36,.92h16.61Z"/><path class="cls-1" d="M135.64,59.63c-.03,.08-.07,.16-.09,.25-.16,1.13-.69,1.66-1.84,1.73-1.08,.07-2.17,.08-3.25,.09-2.17,0-4.34,0-6.51-.02-.53,0-1.05-.05-1.58-.02-1.19,.06-2.07,.72-2.89,1.51-4.09,3.94-8.18,7.88-12.28,11.81-.31,.3-.64,.6-1.01,.83-1.42,.93-3.03,.11-3.11-1.58-.02-.44,0-.87,0-1.31,0-3.33,0-6.66,0-9.99,0-1.09-.33-1.33-1.44-1.29-1.47,.05-2.95,.02-4.42-.04-.74-.03-1.39-.38-1.61-1.17-.21-.75-.17-1.53,.51-2.01,.4-.29,.97-.47,1.46-.48,2.41-.05,4.82-.03,7.23-.02,1.46,0,2.16,.75,2.17,2.29,0,2.05-.01,4.1-.02,6.15,0,1.16,0,2.32,0,3.58,.57-.54,1.08-1.02,1.59-1.5,3.19-3.07,6.39-6.14,9.57-9.21,.91-.88,1.96-1.35,3.24-1.33,3.04,.03,6.09,.03,9.13,.03,.97,0,1.21-.22,1.22-1.19,.01-.78-.03-1.57-.03-2.35,0-7.46,0-14.92,0-22.38,0-.78,.03-1.57,0-2.35-.03-.59-.25-.81-.84-.85-.75-.05-1.51-.04-2.26-.04-.47,0-.93,.02-1.4,.02-15.21,0-30.42,0-45.63,0-.68,0-1.36-.03-2.03-.02-.96,.02-1.16,.24-1.16,1.19,0,3.65,.02,7.3,.01,10.94,0,.43-.07,.87-.18,1.29-.14,.56-.54,.92-1.1,1.01-1.29,.22-2.47-.02-2.61-1.83-.02-.27-.04-.54-.04-.81,0-4.22,0-8.44,0-12.66,0-.39,.03-.78,.07-1.17,.1-.86,.6-1.38,1.45-1.57,.12-.03,.23-.07,.34-.1,19.18,0,38.35,0,57.53,0,.1,.03,.19,.07,.29,.1,.85,.19,1.29,.66,1.42,1.52,.02,.13,.06,.25,.1,.38V59.63Z"/><path class="cls-1" d="M20.22,107.94c.15-.61,.27-1.23,.47-1.83,.34-1,1-1.8,1.75-2.54,1.14-1.12,2.27-2.25,3.36-3.42,.89-.95,1.23-2.12,1.05-3.42-.37-2.69,1.68-4.44,3.44-5.07,3.87-1.38,7.68,1.44,7.47,5.54-.16,3.22-2.92,5.52-6.13,5.09-.65-.09-1.22,.05-1.76,.39-2.86,1.77-4.81,4.2-5.24,7.61-.17,1.38-.15,2.79-.14,4.19,.02,2.26,.15,4.52,.16,6.77,.01,2.27-.05,4.55-.09,6.82,0,.13-.02,.26-.03,.48h-4.3c0-6.87,0-13.75,0-20.62Z"/><path class="cls-1" d="M108.16,43.78c0,1.07-.84,1.88-1.9,1.86-1.16-.02-1.92-.79-1.91-1.93,.01-1.05,.76-1.75,1.87-1.75,1.2,0,1.95,.7,1.94,1.82Z"/><path class="cls-1" d="M115.83,45.61c-1.2,0-1.95-.71-1.96-1.84,0-1.08,.78-1.83,1.92-1.83,1.07,0,1.93,.82,1.94,1.86,0,1.01-.84,1.82-1.9,1.81Z"/><path class="cls-1" d="M94.85,43.75c0-1.11,.69-1.77,1.87-1.77,1.15,0,1.86,.68,1.86,1.79,0,1.16-.69,1.84-1.86,1.85-1.2,0-1.87-.66-1.87-1.86Z"/></svg>