<?xml version="1.0" encoding="UTF-8"?><svg id="Layer_4" xmlns="http://www.w3.org/2000/svg" viewBox="0 0 150 150"><defs><style>.cls-1{fill:#231f20;}</style></defs><g><path class="cls-1" d="M120.45,116.62c-1.42-5.57-4.91-9.06-10.42-9.99-5.21-.88-9.38,1.22-12.49,5.6-.45,.64-.57,1.76-1.65,1.66-4.62-.39-7.58,1.91-9.45,6.42-2.91-4.96-3.95-3.35-4.5-7.92-.82-.05-1.66-.11-2.49-.21-.03,.01-.05,.03-.08,.05,.02,.06,.04,.13,.05,.21,1.11,4.65,2.46,9.26,6.29,12.45,.98,.81,2.04,1.95,3.53,1.25,1.51-.72,.99-2.11,.92-3.36-.14-2.44,1.04-4.09,3.21-4.91,2.06-.78,4.29,.22,5.51,2.32,.17,.29,.27,.62,.42,.92,.52,1.07,1.38,1.52,2.46,1.08,1.15-.47,1.31-1.56,.92-2.58-.38-1.01-.87-2.1-1.62-2.82-1.18-1.13-.87-1.97-.02-3.01,2.35-2.88,5.33-3.99,8.88-3.26,3.46,.71,5.7,2.94,6.75,6.4,.27,.89,.3,1.85,.55,2.75,.27,.97,1.03,1.26,1.95,1.16,.84-.09,1.44-.56,1.48-1.43,.04-.92,.02-1.9-.2-2.78Z"/><path class="cls-1" d="M66.06,112.06s0,0,0,0c-.08,.11-.15,.33-.2,.74-.66,5.21-1.41,2.85-4.47,7.71-.59-1.17-.93-2.04-1.44-2.8-1.89-2.86-4.55-4.14-7.89-3.79-3.25,.34-5.51,2.16-6.84,5.19-.51,1.18-.61,2.44,.75,3.07,1.18,.54,1.96-.11,2.58-1.26,1.52-2.84,3.5-3.83,5.81-3.08,2.26,.73,3.22,2.57,3.1,5.93-.08,2.31,1.05,3.1,3.12,2.15,2.92-1.33,4.54-3.89,5.78-6.73,2.06-4.72,2.7-2.46,3.38-7.28,0-.43,.03-.86,.06-1.28h-2.11c-.55,.48-1.1,.95-1.65,1.44Z"/><path class="cls-1" d="M27.06,118.31c.18-8,9.55-14.2,16.78-11.12,1.11,.47,1.99,1.16,1.57,2.46-.44,1.35-1.47,1.52-2.82,1.18-6.3-1.59-10.56,1.26-11.88,7.95-.27,1.39-.74,2.27-2.21,2.05-1.43-.21-1.52-1.33-1.44-2.51Z"/></g><g><path class="cls-1" d="M40.16,98.18c-.79-.89-.67-1.87-.67-2.85,0-5.48,0-10.96,0-16.44,0-1.24,.62-1.85,1.83-1.82,1.17,.03,1.73,.61,1.73,1.81,0,.59-.01,1.17,0,1.76,0,.23-.17,.57,.2,.67,.42,.11,.57-.25,.77-.43,1.62-1.4,3.22-2.81,4.83-4.22,2.32-2.03,4.62-4.08,6.97-6.1,.66-.57,.87-1.11,.68-1.83-1.67-6.52-2.56-13.09-2.75-19.7-.17-6.35,2.46-12.19,7.76-17.48,3.07-3.07,6.95-5.66,11.52-7.8,.41-.19,.95-.32,1.01-.73h2.23c.05,.38,.55,.51,.92,.69,10.45,5.02,16.73,11.73,18.83,20.13,.61,2.45,.59,4.91,.44,7.39-.35,5.99-1.22,11.95-2.74,17.86-.11,.43,.04,.81,.45,1.17,4.09,3.58,8.17,7.16,12.25,10.74,.16,.14,.3,.41,.65,.32,.32-.08,.19-.35,.2-.53,.02-.78-.01-1.57,.02-2.35,.04-.83,.72-1.35,1.72-1.37,1.05-.02,1.81,.52,1.82,1.38,.02,6.11,0,12.23,.02,18.34,0,.52-.55,.9-.67,1.38h-2.23c-.1-.31-.52-.4-.88-.51-7.68-2.38-15.36-4.76-23.04-7.15-.69-.22-1.13-.16-1.61,.24-.99,.83-2.1,1.65-3.61,2.02-1.65,.4-2.11,1.07-1.88,2.11,.08,.36-.02,.73,.02,1.1,.08,.8-.1,1.55-.9,2.2h-1.78c-.8-.65-.96-1.4-.9-2.2,.05-.68,0-1.37,0-2.05,0-.39-.22-.64-.79-.79-1.89-.48-3.4-1.31-4.63-2.34-.56-.47-1.06-.46-1.8-.23-7.56,2.36-15.13,4.69-22.69,7.04-.42,.13-.94,.21-1.08,.57h-2.23Zm36.81-17.46c0,2.86-.01,5.72,.02,8.59,0,.44-.38,1.11,.29,1.27,.66,.16,1.26-.41,1.75-.77,2.02-1.44,3.42-3.14,4.58-4.92,3.15-4.84,4.95-9.93,6.37-15.09,2-7.31,3.11-14.67,3.04-22.1-.05-4.83-2.16-9.3-5.8-13.47-.45-.52-.95-.63-1.82-.46-6.77,1.32-13.56,1.34-20.33,0-.99-.19-1.49-.02-1.97,.54-3.72,4.3-5.73,8.89-5.75,13.85-.01,2.5,.18,4.99,.42,7.48,.65,6.55,2,13.04,4.27,19.43,1.47,4.13,3.22,8.2,6.33,11.95,.96,1.16,2.03,2.29,3.58,3.16,.35,.2,.72,.57,1.2,.42,.5-.15,.25-.57,.25-.87,.01-5.99,0-11.99,.02-17.98,0-1.11,.66-1.72,1.8-1.71,1.13,0,1.76,.61,1.77,1.73,0,2.98,0,5.97,0,8.95Zm30.33,9.53c0-1.3-.02-2.59,0-3.89,.01-.52-.22-.94-.7-1.35-1.87-1.61-3.71-3.24-5.55-4.87-2.45-2.15-4.9-4.3-7.36-6.45-.24-.21-.44-.57-.85-.52-.49,.07-.41,.47-.5,.75-1.62,4.75-3.51,9.45-6.93,13.81-.37,.48-.03,.65,.55,.83,6.69,2.07,13.38,4.14,20.07,6.21,1.09,.34,1.25,.26,1.26-.57,.01-1.32,0-2.64,0-3.96Zm-64.24-.06h0c0,1.39,0,2.79,0,4.18,0,.55,.29,.73,1.08,.47,1.1-.35,2.22-.69,3.33-1.03,5.58-1.73,11.15-3.47,16.74-5.18,.88-.27,1.09-.53,.57-1.1-.58-.65-1.03-1.36-1.48-2.05-2.43-3.77-4.02-7.71-5.34-11.71-.07-.22-.02-.56-.47-.6-.34-.03-.51,.25-.71,.42-4.35,3.81-8.69,7.63-13.05,11.43-.47,.41-.7,.84-.69,1.35,.03,1.27,.01,2.54,.01,3.81Zm32.1-57.77c2.69,.06,5.33-.21,7.93-.64,1.21-.2,1.27-.32,.52-.94-2.18-1.81-4.71-3.38-7.49-4.78-.68-.34-1.19-.35-1.87,0-2.82,1.41-5.37,3.01-7.56,4.84-.68,.57-.62,.69,.44,.87,2.63,.45,5.3,.71,8.03,.66Z"/><path class="cls-1" d="M75.23,55.9c-7.79,.03-14.3-4.23-14.32-9.37-.02-5.11,6.37-9.35,14.16-9.4,7.8-.05,14.31,4.18,14.37,9.34,.06,5.13-6.38,9.41-14.22,9.44Zm10.65-9.38c0-3.9-4.76-7.04-10.7-7.05-5.93,0-10.71,3.14-10.71,7.04,0,3.9,4.77,7.05,10.7,7.05,5.93,0,10.71-3.14,10.71-7.04Z"/><path class="cls-1" d="M75.47,41.84c3.48,0,6.79,2.17,6.82,4.49,0,.69-.64,1.24-1.56,1.32-.9,.08-1.79-.36-1.92-1.07-.26-1.48-1.45-2.28-3.71-2.44-1.07-.08-1.74-.66-1.63-1.26,.12-.61,.94-1.04,1.99-1.04Z"/></g><path class="cls-1" d="M80.07,100.05c1.6,1.54,2.33,3.46,1.61,5.68-.82,2.52-2.21,4.85-3.57,7.17-.51,.87-1.05,1.74-1.61,2.59-.73,1.11-2.36,1.19-3.08,.08-2.03-3.13-4.04-6.28-5.25-9.74-.93-2.67,.41-5.43,3.26-6.86,2.71-1.36,6.27-.97,8.64,1.07Zm-7.91,2.28c-.66,.62-1.03,1.56-.63,2.69,.75,2.14,1.92,4.13,3.08,6.12,.21,.36,.38,.37,.59,.01,1.17-1.98,2.34-3.97,3.07-6.12,.47-1.39-.14-2.74-1.52-3.44-1.41-.72-3.16-.51-4.59,.73Z"/></svg>